<svg width="0" height="0" style="position:absolute"><symbol viewBox="0 0 22 17" fill="none" id="book" xmlns="http://www.w3.org/2000/svg"><path d="M20 .5C18.89.15 17.67 0 16.5 0c-1.95 0-4.05.4-5.5 1.5C9.55.4 7.45 0 5.5 0 3.55 0 1.45.4 0 1.5v14.65c0 .25.25.5.5.5.1 0 .15-.05.25-.05 1.35-.65 3.3-1.1 4.75-1.1 1.95 0 4.05.4 5.5 1.5 1.35-.85 3.8-1.5 5.5-1.5 1.65 0 3.35.3 4.75 1.05.1.05.15.05.25.05.25 0 .5-.25.5-.5V1.5c-.6-.45-1.25-.75-2-1ZM20 14c-1.1-.35-2.3-.5-3.5-.5-1.7 0-4.15.65-5.5 1.5V3.5c1.35-.85 3.8-1.5 5.5-1.5 1.2 0 2.4.15 3.5.5V14Z" fill="#A6ABB9"/><path d="M16.5 6c.88 0 1.73.09 2.5.26V4.74c-.79-.15-1.64-.24-2.5-.24-1.7 0-3.24.29-4.5.83v1.66c1.13-.64 2.7-.99 4.5-.99ZM12 7.99v1.66c1.13-.64 2.7-.99 4.5-.99.88 0 1.73.09 2.5.26V7.4c-.79-.15-1.64-.24-2.5-.24-1.7 0-3.24.3-4.5.83ZM16.5 9.83c-1.7 0-3.24.29-4.5.83v1.66c1.13-.64 2.7-.99 4.5-.99.88 0 1.73.09 2.5.26v-1.52c-.79-.16-1.64-.24-2.5-.24Z" fill="#A6ABB9"/></symbol><symbol viewBox="0 0 24 24" fill="none" id="clock" xmlns="http://www.w3.org/2000/svg"><circle cx="12" cy="13" r="8" stroke="#A6ABB9" stroke-width="2" stroke-linecap="round" stroke-linejoin="round"/><path d="M12 9v4l3 2M18 3l3 3M6 3 3 6" stroke="#A6ABB9" stroke-width="2" stroke-linecap="round" stroke-linejoin="round"/></symbol><symbol viewBox="0 0 64 64" xml:space="preserve" style="fill-rule:evenodd;clip-rule:evenodd;stroke-linejoin:round;stroke-miterlimit:2" id="spinner-loading" xmlns="http://www.w3.org/2000/svg"><path style="fill:none" d="M-1024-64H256v800h-1280z"/><path d="M46.03 32a4.987 4.987 0 0 1 4.985-4.985A4.988 4.988 0 0 1 56 32a4.988 4.988 0 0 1-4.985 4.985A4.987 4.987 0 0 1 46.03 32Z" style="fill:#d9d9d9"/><path d="M41.92 41.92a4.99 4.99 0 0 1 7.051 0 4.99 4.99 0 0 1 0 7.051 4.99 4.99 0 0 1-7.051 0 4.99 4.99 0 0 1 0-7.051Z" style="fill:#b3b3b3"/><circle cx="32" cy="51.015" r="4.985" style="fill:#8c8c8c"/><path d="M22.08 41.92a4.99 4.99 0 0 1 0 7.051 4.99 4.99 0 0 1-7.051 0 4.99 4.99 0 0 1 0-7.051 4.99 4.99 0 0 1 7.051 0Z" style="fill:#666"/><path d="M17.97 32a4.987 4.987 0 0 1-4.985 4.985A4.988 4.988 0 0 1 8 32a4.988 4.988 0 0 1 4.985-4.985A4.987 4.987 0 0 1 17.97 32ZM22.08 22.08a4.99 4.99 0 0 1-7.051 0 4.99 4.99 0 0 1 0-7.051 4.99 4.99 0 0 1 7.051 0 4.99 4.99 0 0 1 0 7.051Z" style="fill:#404040"/><circle cx="32" cy="12.985" r="4.985"/></symbol></svg>